<svg xmlns="http://www.w3.org/2000/svg" viewBox="0 0 511.93 372.27"><defs><style>.cls-1{fill:#fff;}</style></defs><title>Fichier 1</title><g id="Calque_2" data-name="Calque 2"><g id="Calque_1-2" data-name="Calque 1"><path class="cls-1" d="M47.49,314.17H15c-11.14,0-14.93-3.84-14.95-15C0,275.32.31,251.49,5,228c3.64-18.23,10.21-35.1,24.49-48a61.44,61.44,0,0,1,22.86-12.81c2-.65,4.09-1.26,6.81-2.09-7.21-9.87-14.2-19.29-21-28.82-4.71-6.59-4.35-13,1.54-17.13a18,18,0,0,1,9.75-2.8c31.82-.2,63.65-.12,95.48-.12,16.84,0,33.67-.05,50.5,0,18.72.12,31.63,9.46,35.95,26.28a53.63,53.63,0,0,1,1.28,12.86c.15,19.83.1,39.66.12,59.49,0,1.81,0,3.63,0,6.18h5.64c16.5,0,33-.19,49.49.1,13.68.24,24.49-5,33-15.52,5.75-7.13,11.74-14.08,17.31-21.34a39,39,0,0,0,8.25-28.48c-2.6-26.5-5-53-7.5-79.53-.49-5.14-1-10.27-1.61-15.39-.86-7.12,2.65-12.47,9.2-13.82a11.31,11.31,0,0,1,13.46,9c1.58,7.8,2.12,15.8,3,23.73q3.92,35.73,7.74,71.46c1.75,16.23-1.63,31.26-11.78,44.17-9,11.5-18.26,23-28.34,33.54-9.8,10.28-22.75,14.94-36.9,15.12-23.5.29-47,.12-70.49.11-10,0-14-4.12-14-14.46q0-37.74-.05-75.49c0-10.86-3.46-14.51-14.16-14.53q-60-.09-120,0c-1.26,0-2.52.21-4.76.41,5.79,7.76,11.12,14.89,16.43,22a64.16,64.16,0,0,1,4.35,6.08c4.69,8.15-.5,17.07-9.87,18-7.88.77-16,1.51-23.45,3.9-14.58,4.68-22,16.41-26.56,30.28-5.08,15.5-6.1,31.63-7.1,47.72-.46,7.28-.08,14.62-.08,22.74h4.33q152,0,304,0a18.6,18.6,0,0,0,7.23-1.27Q405.32,261,471,232.21c1.93-.84,3.84-1.71,6.49-2.89a66.29,66.29,0,0,0-29-10c-32.56-3.35-60,6.79-81.29,32.09-3.09,3.67-5.37,8-8.16,11.91-3.6,5.08-9,7-13.83,5.2a12.19,12.19,0,0,1-8.13-12.41,15.88,15.88,0,0,1,2.15-6c13.67-23.67,33.74-39.43,59.62-48,1.72-.57,3.42-1.23,5.72-2.06-2-9.11-3.82-18.15-5.85-27.15-4.7-20.9-9.5-41.77-14.24-62.65C381.7,98,388.75,91,400.85,94l28.92,7.12V60.88c-6.19,1.22-12.27,2.38-18.33,3.63-7.81,1.61-15.59,3.33-23.4,4.94-6.28,1.29-10.79-.45-13.72-6.17-2.55-5-4.28-10.42-6.39-15.64C364,38,359.13,29.31,348.77,25.21c-4.55-1.8-8.52-1.95-12.89,1.32-8.53,6.35-17.48,12.17-26.41,18-8.23,5.35-15.94,2.89-18.77-5.69-1.65-5-.31-9.63,4.2-12.69,11.56-7.86,23.21-15.58,34.87-23.31,6.67-4.42,13.82-2.69,20.78-1.12C367.44,5.48,378.14,16.84,386,31.47c.39.74.71,1.51,1.1,2.24,1.85,3.45,2.91,8.41,5.78,9.91,2.68,1.39,7.29-.83,11-1.57,10.92-2.16,21.79-4.54,32.75-6.5s18.59,2.19,18.3,14.93c-.45,20.48-.12,41-.09,61.49,0,13.1-6.32,18.2-19,15.15-7.75-1.86-15.46-3.85-24-6,1.56,7.69,3,14.93,4.51,22.14,3.47,16.07,7.22,32.08,10.4,48.21.86,4.34,2.58,5,6.59,5,27.53-.5,52.12,7.39,72.73,26.21,8.83,8.06,7.6,16.24-3.3,21.41-3.6,1.71-7.27,3.26-10.94,4.83s-7.26,3-11,4.57c22.19,27.4,26.32,56.3,7.85,86.56-14.78,24.22-41.79,34.7-66.1,31.75A69.19,69.19,0,0,1,379.46,350c-9.77-10.38-12-15.69-19.49-44.8-4.43,1.9-8.92,3.54-13.13,5.72-5.19,2.69-10.56,3.38-16.34,3.37-46.83-.14-93.66-.05-140.49-.18-3.79,0-5.29.9-6.23,4.87-7.13,30.46-35.45,53.1-66.1,53.25-32.76.16-60.87-21.3-68.72-52.48C48.52,318,48,316.24,47.49,314.17Zm410.12-51.48c-12.68,5.67-24,10.82-35.4,15.79s-22.83,9.9-34.35,14.59c-3.35,1.36-3.74,3.79-3.9,6.7-1.58,28.54,23.29,51.85,51.44,48.7,30.94-3.47,50.28-36.48,37.14-64.72C469,276.13,462.73,269.78,457.61,262.69ZM71.46,314.31c4.24,18.11,24.13,37.93,51.92,34.05,17.19-2.4,35.6-19.07,36.2-34.05Z"/><path class="cls-1" d="M81.2,267.44c-7.49,0-15,.17-22.46,0-7.81-.23-11.79-4.08-12-11-.17-7.22,3.85-11.85,11.63-12,15.3-.31,30.62-.25,45.93,0,6.33.1,10.42,3.54,11.51,8.49,1.25,5.71-.71,11-5.47,13.2a20.38,20.38,0,0,1-7.72,1.39c-7.15.18-14.31.06-21.47.06Z"/><path class="cls-1" d="M430.42,291.05a11.72,11.72,0,0,1,11.5,11.38c0,5.93-5.46,11.51-11.46,11.65-6.27.15-11.63-5.33-11.54-11.8A11.28,11.28,0,0,1,430.42,291.05Z"/></g></g></svg>