<?xml version="1.0" encoding="utf-8"?>
<!-- Generator: Adobe Illustrator 23.0.6, SVG Export Plug-In . SVG Version: 6.00 Build 0)  -->
<svg version="1.1" id="Calque_1" xmlns="http://www.w3.org/2000/svg" xmlns:xlink="http://www.w3.org/1999/xlink" x="0px" y="0px"
	 viewBox="0 0 511.9 372.3" style="enable-background:new 0 0 511.9 372.3;" xml:space="preserve">
<style type="text/css">
	.st0{fill:#36373C;}
</style>
<title>Fichier 1</title>
<g>
	<g>
		<g id="Calque_1-2_8_">
			<path class="st0" d="M47.5,314.2H15c-11.1,0-14.9-3.8-14.9-15C0,275.3,0.3,251.5,5,228c3.6-18.2,10.2-35.1,24.5-48
				c6.6-5.9,14.4-10.2,22.9-12.8c2-0.6,4.1-1.3,6.8-2.1c-7.2-9.9-14.2-19.3-21-28.8c-4.7-6.6-4.3-13,1.5-17.1
				c2.9-1.8,6.3-2.8,9.8-2.8c31.8-0.2,63.7-0.1,95.5-0.1c16.8,0,33.7-0.1,50.5,0c18.7,0.1,31.6,9.5,35.9,26.3
				c0.9,4.2,1.4,8.5,1.3,12.9c0.1,19.8,0.1,39.7,0.1,59.5c0,1.8,0,3.6,0,6.2h5.6c16.5,0,33-0.2,49.5,0.1c13.7,0.2,24.5-5,33-15.5
				c5.8-7.1,11.7-14.1,17.3-21.3c6.4-8,9.4-18.3,8.3-28.5c-2.6-26.5-5-53-7.5-79.5c-0.5-5.1-1-10.3-1.6-15.4
				c-0.9-7.1,2.6-12.5,9.2-13.8c6.1-1.3,12.1,2.6,13.4,8.7c0,0.1,0,0.2,0.1,0.3c1.6,7.8,2.1,15.8,3,23.7c2.6,23.8,5.2,47.6,7.7,71.5
				c1.8,16.2-1.6,31.3-11.8,44.2c-9,11.5-18.3,23-28.3,33.5c-9.8,10.3-22.8,14.9-36.9,15.1c-23.5,0.3-47,0.1-70.5,0.1
				c-10,0-14-4.1-14-14.5c0-25.2,0-50.3-0.1-75.5c0-10.9-3.5-14.5-14.2-14.5c-40-0.1-80-0.1-120,0c-1.3,0-2.5,0.2-4.8,0.4
				c5.8,7.8,11.1,14.9,16.4,22c1.6,1.9,3,4,4.3,6.1c4.7,8.1-0.5,17.1-9.9,18c-7.9,0.8-16,1.5-23.5,3.9c-14.6,4.7-22,16.4-26.6,30.3
				c-5.1,15.5-6.1,31.6-7.1,47.7c-0.5,7.3-0.1,14.6-0.1,22.7h4.3c101.3,0,202.7,0,304,0c2.5,0.1,4.9-0.4,7.2-1.3
				c43.8-19,87.7-38.2,131.4-57.4c1.9-0.8,3.8-1.7,6.5-2.9c-8.8-5.6-18.7-9-29-10c-32.6-3.4-60,6.8-81.3,32.1
				c-3.1,3.7-5.4,8-8.2,11.9c-3.6,5.1-9,7-13.8,5.2c-5.2-1.8-8.5-6.9-8.1-12.4c0.3-2.1,1-4.2,2.1-6c13.7-23.7,33.7-39.4,59.6-48
				c1.7-0.6,3.4-1.2,5.7-2.1c-2-9.1-3.8-18.1-5.9-27.1c-4.7-20.9-9.5-41.8-14.2-62.7C381.7,98,388.8,91,400.9,94l28.9,7.1V60.9
				c-6.2,1.2-12.3,2.4-18.3,3.6c-7.8,1.6-15.6,3.3-23.4,4.9c-6.3,1.3-10.8-0.4-13.7-6.2c-2.5-5-4.3-10.4-6.4-15.6
				c-3.9-9.6-8.8-18.3-19.2-22.4c-4.5-1.8-8.5-2-12.9,1.3c-8.5,6.3-17.5,12.2-26.4,18c-8.2,5.3-15.9,2.9-18.8-5.7
				c-1.6-5-0.3-9.6,4.2-12.7c11.6-7.9,23.2-15.6,34.9-23.3c6.7-4.4,13.8-2.7,20.8-1.1c16.9,3.8,27.6,15.1,35.5,29.7
				c0.4,0.7,0.7,1.5,1.1,2.2c1.9,3.5,2.9,8.4,5.8,9.9c2.7,1.4,7.3-0.8,11-1.6c10.9-2.2,21.8-4.5,32.8-6.5s18.6,2.2,18.3,14.9
				c-0.5,20.5-0.1,41-0.1,61.5c0,13.1-6.3,18.2-19,15.2c-7.8-1.9-15.5-3.8-24-6c1.6,7.7,3,14.9,4.5,22.1
				c3.5,16.1,7.2,32.1,10.4,48.2c0.9,4.3,2.6,5,6.6,5c27.5-0.5,52.1,7.4,72.7,26.2c8.8,8.1,7.6,16.2-3.3,21.4
				c-3.6,1.7-7.3,3.3-10.9,4.8s-7.3,3-11,4.6c22.2,27.4,26.3,56.3,7.9,86.6c-14.8,24.2-41.8,34.7-66.1,31.8
				c-16.5-1.8-31.8-9.6-43.1-21.8c-9.8-10.4-12-15.7-19.5-44.8c-4.4,1.9-8.9,3.5-13.1,5.7c-5.2,2.7-10.6,3.4-16.3,3.4
				c-46.8-0.1-93.7,0-140.5-0.2c-3.8,0-5.3,0.9-6.2,4.9c-7.1,30.5-35.4,53.1-66.1,53.3c-32.8,0.2-60.9-21.3-68.7-52.5
				C48.5,318,48,316.2,47.5,314.2z M457.6,262.7c-12.7,5.7-24,10.8-35.4,15.8s-22.8,9.9-34.4,14.6c-3.4,1.4-3.7,3.8-3.9,6.7
				c-1.6,28.5,23.3,51.9,51.4,48.7c30.9-3.5,50.3-36.5,37.1-64.7C469,276.1,462.7,269.8,457.6,262.7z M71.5,314.3
				c4.2,18.1,24.1,37.9,51.9,34c17.2-2.4,35.6-19.1,36.2-34H71.5z"/>
			<path class="st0" d="M81.2,267.4c-7.5,0-15,0.2-22.5,0c-7.8-0.2-11.8-4.1-12-11c-0.2-7.2,3.8-11.9,11.6-12
				c15.3-0.3,30.6-0.3,45.9,0c6.3,0.1,10.4,3.5,11.5,8.5c1.3,5.7-0.7,11-5.5,13.2c-2.5,1-5.1,1.4-7.7,1.4
				c-7.2,0.2-14.3,0.1-21.5,0.1L81.2,267.4z"/>
			<path class="st0" d="M430.4,291c6.3,0.1,11.3,5.1,11.5,11.4c0,5.9-5.5,11.5-11.5,11.6c-6.3,0.1-11.6-5.3-11.5-11.8
				c0-6.2,5.1-11.3,11.3-11.2C430.3,291,430.4,291,430.4,291z"/>
		</g>
	</g>
</g>
</svg>
